<svg height="2318" width="720" xmlns="http://www.w3.org/2000/svg">
<rect height="2318" fill="#555" width="720"></rect>
<text fill="#7f7" font-family="Courier New" font-size="12" xml:space="preserve">
<tspan x="10" y="26">24 megabytes installed</tspan>
<tspan x="10" y="42"></tspan>
<tspan x="10" y="58">node_modules</tspan>
<tspan x="10" y="74">├── UNMET PEER DEPENDENCY grunt@&gt;=0.4.0</tspan>
<tspan x="10" y="90">└─┬ grunt-eslint@19.0.0 </tspan>
<tspan x="10" y="106">  ├─┬ chalk@1.1.3 </tspan>
<tspan x="10" y="122">  │ ├── ansi-styles@2.2.1 </tspan>
<tspan x="10" y="138">  │ ├── escape-string-regexp@1.0.5 </tspan>
<tspan x="10" y="154">  │ ├─┬ has-ansi@2.0.0 </tspan>
<tspan x="10" y="170">  │ │ └── ansi-regex@2.1.1 </tspan>
<tspan x="10" y="186">  │ ├── strip-ansi@3.0.1 </tspan>
<tspan x="10" y="202">  │ └── supports-color@2.0.0 </tspan>
<tspan x="10" y="218">  └─┬ eslint@3.19.0 </tspan>
<tspan x="10" y="234">    ├─┬ babel-code-frame@6.22.0 </tspan>
<tspan x="10" y="250">    │ └── js-tokens@3.0.1 </tspan>
<tspan x="10" y="266">    ├─┬ concat-stream@1.6.0 </tspan>
<tspan x="10" y="282">    │ ├── inherits@2.0.3 </tspan>
<tspan x="10" y="298">    │ ├─┬ readable-stream@2.2.9 </tspan>
<tspan x="10" y="314">    │ │ ├── buffer-shims@1.0.0 </tspan>
<tspan x="10" y="330">    │ │ ├── core-util-is@1.0.2 </tspan>
<tspan x="10" y="346">    │ │ ├── process-nextick-args@1.0.7 </tspan>
<tspan x="10" y="362">    │ │ ├── string_decoder@1.0.0 </tspan>
<tspan x="10" y="378">    │ │ └── util-deprecate@1.0.2 </tspan>
<tspan x="10" y="394">    │ └── typedarray@0.0.6 </tspan>
<tspan x="10" y="410">    ├─┬ debug@2.6.4 </tspan>
<tspan x="10" y="426">    │ └── ms@0.7.3 </tspan>
<tspan x="10" y="442">    ├─┬ doctrine@2.0.0 </tspan>
<tspan x="10" y="458">    │ └── isarray@1.0.0 </tspan>
<tspan x="10" y="474">    ├─┬ escope@3.6.0 </tspan>
<tspan x="10" y="490">    │ ├─┬ es6-map@0.1.5 </tspan>
<tspan x="10" y="506">    │ │ ├── d@1.0.0 </tspan>
<tspan x="10" y="522">    │ │ ├── es5-ext@0.10.15 </tspan>
<tspan x="10" y="538">    │ │ ├── es6-iterator@2.0.1 </tspan>
<tspan x="10" y="554">    │ │ ├── es6-set@0.1.5 </tspan>
<tspan x="10" y="570">    │ │ ├── es6-symbol@3.1.1 </tspan>
<tspan x="10" y="586">    │ │ └── event-emitter@0.3.5 </tspan>
<tspan x="10" y="602">    │ ├── es6-weak-map@2.0.2 </tspan>
<tspan x="10" y="618">    │ └─┬ esrecurse@4.1.0 </tspan>
<tspan x="10" y="634">    │   └── estraverse@4.1.1 </tspan>
<tspan x="10" y="650">    ├─┬ espree@3.4.2 </tspan>
<tspan x="10" y="666">    │ ├── acorn@5.0.3 </tspan>
<tspan x="10" y="682">    │ └─┬ acorn-jsx@3.0.1 </tspan>
<tspan x="10" y="698">    │   └── acorn@3.3.0 </tspan>
<tspan x="10" y="714">    ├── esquery@1.0.0 </tspan>
<tspan x="10" y="730">    ├── estraverse@4.2.0 </tspan>
<tspan x="10" y="746">    ├── esutils@2.0.2 </tspan>
<tspan x="10" y="762">    ├─┬ file-entry-cache@2.0.0 </tspan>
<tspan x="10" y="778">    │ ├─┬ flat-cache@1.2.2 </tspan>
<tspan x="10" y="794">    │ │ ├── circular-json@0.3.1 </tspan>
<tspan x="10" y="810">    │ │ ├─┬ del@2.2.2 </tspan>
<tspan x="10" y="826">    │ │ │ ├─┬ globby@5.0.0 </tspan>
<tspan x="10" y="842">    │ │ │ │ ├─┬ array-union@1.0.2 </tspan>
<tspan x="10" y="858">    │ │ │ │ │ └── array-uniq@1.0.3 </tspan>
<tspan x="10" y="874">    │ │ │ │ └── arrify@1.0.1 </tspan>
<tspan x="10" y="890">    │ │ │ ├── is-path-cwd@1.0.0 </tspan>
<tspan x="10" y="906">    │ │ │ ├─┬ is-path-in-cwd@1.0.0 </tspan>
<tspan x="10" y="922">    │ │ │ │ └── is-path-inside@1.0.0 </tspan>
<tspan x="10" y="938">    │ │ │ ├── pify@2.3.0 </tspan>
<tspan x="10" y="954">    │ │ │ ├─┬ pinkie-promise@2.0.1 </tspan>
<tspan x="10" y="970">    │ │ │ │ └── pinkie@2.0.4 </tspan>
<tspan x="10" y="986">    │ │ │ └── rimraf@2.6.1 </tspan>
<tspan x="10" y="1002">    │ │ ├── graceful-fs@4.1.11 </tspan>
<tspan x="10" y="1018">    │ │ └── write@0.2.1 </tspan>
<tspan x="10" y="1034">    │ └── object-assign@4.1.1 </tspan>
<tspan x="10" y="1050">    ├─┬ glob@7.1.1 </tspan>
<tspan x="10" y="1066">    │ ├── fs.realpath@1.0.0 </tspan>
<tspan x="10" y="1082">    │ ├─┬ inflight@1.0.6 </tspan>
<tspan x="10" y="1098">    │ │ └── wrappy@1.0.2 </tspan>
<tspan x="10" y="1114">    │ ├─┬ minimatch@3.0.3 </tspan>
<tspan x="10" y="1130">    │ │ └─┬ brace-expansion@1.1.7 </tspan>
<tspan x="10" y="1146">    │ │   ├── balanced-match@0.4.2 </tspan>
<tspan x="10" y="1162">    │ │   └── concat-map@0.0.1 </tspan>
<tspan x="10" y="1178">    │ ├── once@1.4.0 </tspan>
<tspan x="10" y="1194">    │ └── path-is-absolute@1.0.1 </tspan>
<tspan x="10" y="1210">    ├── globals@9.17.0 </tspan>
<tspan x="10" y="1226">    ├── ignore@3.2.7 </tspan>
<tspan x="10" y="1242">    ├── imurmurhash@0.1.4 </tspan>
<tspan x="10" y="1258">    ├─┬ inquirer@0.12.0 </tspan>
<tspan x="10" y="1274">    │ ├── ansi-escapes@1.4.0 </tspan>
<tspan x="10" y="1290">    │ ├─┬ cli-cursor@1.0.2 </tspan>
<tspan x="10" y="1306">    │ │ └─┬ restore-cursor@1.0.1 </tspan>
<tspan x="10" y="1322">    │ │   ├── exit-hook@1.1.1 </tspan>
<tspan x="10" y="1338">    │ │   └── onetime@1.1.0 </tspan>
<tspan x="10" y="1354">    │ ├── cli-width@2.1.0 </tspan>
<tspan x="10" y="1370">    │ ├── figures@1.7.0 </tspan>
<tspan x="10" y="1386">    │ ├─┬ readline2@1.0.1 </tspan>
<tspan x="10" y="1402">    │ │ ├── code-point-at@1.1.0 </tspan>
<tspan x="10" y="1418">    │ │ ├─┬ is-fullwidth-code-point@1.0.0 </tspan>
<tspan x="10" y="1434">    │ │ │ └── number-is-nan@1.0.1 </tspan>
<tspan x="10" y="1450">    │ │ └── mute-stream@0.0.5 </tspan>
<tspan x="10" y="1466">    │ ├── run-async@0.1.0 </tspan>
<tspan x="10" y="1482">    │ ├── rx-lite@3.1.2 </tspan>
<tspan x="10" y="1498">    │ ├── string-width@1.0.2 </tspan>
<tspan x="10" y="1514">    │ └── through@2.3.8 </tspan>
<tspan x="10" y="1530">    ├─┬ is-my-json-valid@2.16.0 </tspan>
<tspan x="10" y="1546">    │ ├── generate-function@2.0.0 </tspan>
<tspan x="10" y="1562">    │ ├─┬ generate-object-property@1.2.0 </tspan>
<tspan x="10" y="1578">    │ │ └── is-property@1.0.2 </tspan>
<tspan x="10" y="1594">    │ ├── jsonpointer@4.0.1 </tspan>
<tspan x="10" y="1610">    │ └── xtend@4.0.1 </tspan>
<tspan x="10" y="1626">    ├─┬ is-resolvable@1.0.0 </tspan>
<tspan x="10" y="1642">    │ └── tryit@1.0.3 </tspan>
<tspan x="10" y="1658">    ├─┬ js-yaml@3.8.3 </tspan>
<tspan x="10" y="1674">    │ ├─┬ argparse@1.0.9 </tspan>
<tspan x="10" y="1690">    │ │ └── sprintf-js@1.0.3 </tspan>
<tspan x="10" y="1706">    │ └── esprima@3.1.3 </tspan>
<tspan x="10" y="1722">    ├─┬ json-stable-stringify@1.0.1 </tspan>
<tspan x="10" y="1738">    │ └── jsonify@0.0.0 </tspan>
<tspan x="10" y="1754">    ├─┬ levn@0.3.0 </tspan>
<tspan x="10" y="1770">    │ ├── prelude-ls@1.1.2 </tspan>
<tspan x="10" y="1786">    │ └── type-check@0.3.2 </tspan>
<tspan x="10" y="1802">    ├── lodash@4.17.4 </tspan>
<tspan x="10" y="1818">    ├─┬ mkdirp@0.5.1 </tspan>
<tspan x="10" y="1834">    │ └── minimist@0.0.8 </tspan>
<tspan x="10" y="1850">    ├── natural-compare@1.4.0 </tspan>
<tspan x="10" y="1866">    ├─┬ optionator@0.8.2 </tspan>
<tspan x="10" y="1882">    │ ├── deep-is@0.1.3 </tspan>
<tspan x="10" y="1898">    │ ├── fast-levenshtein@2.0.6 </tspan>
<tspan x="10" y="1914">    │ └── wordwrap@1.0.0 </tspan>
<tspan x="10" y="1930">    ├── path-is-inside@1.0.2 </tspan>
<tspan x="10" y="1946">    ├── pluralize@1.2.1 </tspan>
<tspan x="10" y="1962">    ├── progress@1.1.8 </tspan>
<tspan x="10" y="1978">    ├─┬ require-uncached@1.0.3 </tspan>
<tspan x="10" y="1994">    │ ├─┬ caller-path@0.1.0 </tspan>
<tspan x="10" y="2010">    │ │ └── callsites@0.2.0 </tspan>
<tspan x="10" y="2026">    │ └── resolve-from@1.0.1 </tspan>
<tspan x="10" y="2042">    ├─┬ shelljs@0.7.7 </tspan>
<tspan x="10" y="2058">    │ ├── interpret@1.0.3 </tspan>
<tspan x="10" y="2074">    │ └─┬ rechoir@0.6.2 </tspan>
<tspan x="10" y="2090">    │   └─┬ resolve@1.3.3 </tspan>
<tspan x="10" y="2106">    │     └── path-parse@1.0.5 </tspan>
<tspan x="10" y="2122">    ├── strip-bom@3.0.0 </tspan>
<tspan x="10" y="2138">    ├── strip-json-comments@2.0.1 </tspan>
<tspan x="10" y="2154">    ├─┬ table@3.8.3 </tspan>
<tspan x="10" y="2170">    │ ├─┬ ajv@4.11.7 </tspan>
<tspan x="10" y="2186">    │ │ └── co@4.6.0 </tspan>
<tspan x="10" y="2202">    │ ├── ajv-keywords@1.5.1 </tspan>
<tspan x="10" y="2218">    │ ├── slice-ansi@0.0.4 </tspan>
<tspan x="10" y="2234">    │ └─┬ string-width@2.0.0 </tspan>
<tspan x="10" y="2250">    │   └── is-fullwidth-code-point@2.0.0 </tspan>
<tspan x="10" y="2266">    ├── text-table@0.2.0 </tspan>
<tspan x="10" y="2282">    └─┬ user-home@2.0.0 </tspan>
<tspan x="10" y="2298">      └── os-homedir@1.0.2</tspan>
</text>
</svg>
